<svg xmlns="http://www.w3.org/2000/svg" viewBox="0 0 664.26 566.22"><path d="M529.91 176.8C460.67 63.73 315.76 29.48 202.94 99.43c-133.05 82.49-147.72 275.23-28.7 377.13 5.7 4.88 26.45 3.79 31.31-1.74.59-.67 1.14-2.34.8-2.7-9.88-10.47 2.75-9.2 6.27-10.67 55.41-23.23 81.02-85.01 57.85-140.44-22.63-54.13-85.74-79.04-140.35-55.54-3.04 1.31-5.8 4.6-9.96 2.84-.07-1.25-.33-2.34-.17-3.37C136.02 157.67 230.08 90.82 320 87.01c7.31-.31 8.1 3.34 8.51 9.31 1.67 24.69 16.49 42.35 39.55 47.91 20.83 5.02 43.03-4.58 54.87-25.06 4.03-6.96 7.15-6.2 12.71-2.87 24.16 14.48 45.68 32.22 61.44 55.5 9.75 14.4 23.81 14.38 37.81 18.17.44-6.18-2.75-9.57-4.96-13.17ZM121.57 295.82c27.83-20.6 69.32-24.45 98.49-4.69 14.1 9.55 24.51 23.11 30.92 38.82 3.4 8.34 6.2 16.98 6.93 26.01.36 4.4-.08 8.61-.78 12.78.39.99.61 2.09.54 3.3-1.48 26.6-17.91 48.15-39.12 62.89-8.55 5.94-19.07 11.57-29.76 11.65-9.25.07-17.35-5.89-23.84-11.89-16.56-15.32-26.72-36.03-34.44-56.89-5.87-15.84-10.37-31.83-12.71-48.56-.91-6.51-2.5-16.38-.76-24.11-.06-.48-.13-.95-.18-1.45-.37-4.17 1.8-6.78 4.72-7.87Zm282.39-185.49c-1.3 1.35-2.34 2.4-3.64 3.69-.35.84-.87 1.64-1.64 2.35-9.02 8.35-22.87 9.7-33.9 4.67-6.7-3.06-18.13-14.4-16.87-23.32-1.01-4.69 2.79-10.67 9-9.25 2.96.68 5.94 1.2 8.93 1.67 6.63.72 13.4 1.69 19.92 2.83 2.04.36 4.07.99 5.96 1.85 5.94 1.2 13.25 3.11 13.95 8.5.62 2.35.2 5-1.72 7Z"/><path d="M606.48 126.11c-.38.46-.79.9-1.24 1.32-.03.03-.06.05-.09.08 0 0-.01.02-.02.02-.02.02-.04.04-.07.06-.87.91-1.83 1.66-2.88 2.28-1.48.96-3.08 1.71-4.84 2.2l-.64.09c-1 .26-2.03.39-3.09.41-.32.04-.64.09-.96.13-3.18 0-6.15-.81-8.9-2.41l-3.57-2.76c-.64-.6-1.19-1.25-1.69-1.92-3.38.47-6.86.69-7.65 4.6-1.03 5.08 5 7.23 7.86 10.7.93 1.12-.21-.33.85.68 13.91 2.65 12.56 12.16 10.09 22.26-5.11 20.89-14.72 39.74-26.39 57.59-36.72 56.21-85.06 101.28-137.74 141.91-70.07 54.05-145.88 97.81-231.06 123.53-30.92 9.34-62.59 16.24-95.11 8.21-27.01-6.67-37.78-24.33-32.76-51.68 3.57-19.42 10.83-37.8 22.46-53.17 10.03-13.26 6.62-24.87 2.79-37.82-1.49-5.05-3.56-5.1-6.35-1.15-20.63 29.19-39.14 59.44-43.49 95.92-3.93 32.92 12.26 57.84 43.46 68.9 15.16 5.37 30.78 6.53 46.54 5.68 69.43-3.77 130.9-31.45 190.69-64.04 14.43-12.61 32.07-20.17 48.06-30.33 46.01-29.22 88.93-62.24 128.71-99.44 38.43-35.93 72.58-75.25 96.27-122.65 10.15-20.31 18.27-41.34 18.12-64.81-.05-7.36-1.98-12.13-7.36-14.4Z"/><path d="M562.07 284.08c-13.33 9.37-21.37 21.51-22.99 35.71-2.56 22.32-8.34 43.71-17.02 64.44-3.07 7.34-6.12 8.41-13.89 5.64-28.68-10.23-55.17-5.06-77.14 16.11-21.73 20.94-27.55 46.88-18.16 75.49 2.62 7.98.72 10.92-6.5 13.69-42.25 16.21-85.72 20.35-129.11 8.01-18.17-5.17-30.4 3.13-46.1 7.99 55.6 32.24 156.98 33.09 232.31-19.65 80.07-56.06 106.85-148.86 98.59-207.44Zm-58.68 134.93c-6.12 7.35-12.11 14.78-18.45 21.96-.3.34-.61.62-.93.86-4.68 5.13-10.07 9.87-15.25 14.43-2.65 2.33-5.33 4.68-8.11 6.86-1.08.85-2.53 1.61-3.9 2.44-.05.07-.09.14-.14.22-1.5 1.92-2.99 3.22-5.11 4.43-.25.15-.52.25-.78.35-2.46 1.93-4.97 3.77-7.63 5.45-1.61 5.1-10.87 4.29-11.54-2.3-.22-2.14-.45-4.26-.66-6.37-1.26-5.36-1.38-10.82-.58-16.19.26-3.81.91-7.61 2.2-11.43 2.11-6.28 6.51-11.88 11.21-16.91 1.84-2.14 3.81-4.15 5.89-5.99.81-.71 1.66-1.13 2.52-1.36 5.84-4.43 12.21-7.54 19.74-8.93 2.59-.48 5.08-.69 7.53-.73 2.22-.38 4.34-.08 6.53.11h.52c.43.01.86.06 1.28.11.21 0 .43.02.64.02 3.28 0 6.58.07 9.49 1.77.12.07.23.15.34.23.42.08.85.16 1.28.24 1.7.31 2.82 1.09 3.49 2.09 2.51 2.1 2.72 5.87.41 8.63ZM551.55 202.71c-82.74-27.37-168.07-34.64-254.6-31.74-7.04.24-11.97-.29-16.41-7.17-6.69-10.38-17.41-15.29-30-15.35-18.44-.09-33.45 12.67-36.84 31.32-3.08 16.92 7.31 34.7 24.03 41.14 16.87 6.49 35.79-.25 45.35-16.59 3-5.12 5.04-9.47 12.61-9.63 83.91-1.82 166.74 4.64 247.29 30.16 9.01 2.85 17.64-2.68 19.76-13.93 1.6-8.45-7.07-6.84-11.19-8.2Zm-300.9 5.13c-12.35 0-21.5-10.1-22.04-22.04-.53-11.9 10.51-22.04 22.04-22.04 12.35 0 21.5 10.1 22.04 22.04.53 11.9-10.51 22.04-22.04 22.04Z"/><path d="M416.65 316.97c-27.31-.08-49.8-22.59-49.62-49.66.19-28.24 22.28-50.21 50.31-50.01 27.91.19 50.02 22.74 49.71 50.72-.29 26.99-22.99 49.03-50.41 48.96ZM548.24 401.97c5.47-18.08 10.17-31.92 28.56-37.93 18.77-6.13 35.26-17.65 49.25-32.04 18.52-19.06 18.7-40.81.58-60.31-9.82-10.57-21.54-18.64-34.29-25.25-4.69-2.44-9.04-5.38-3.59-10.4 4.53-4.18 3.4-17.34 15.73-10.26 21.19 12.18 40.74 26.13 52.44 48.38 11.03 20.97 9.48 41.56-3.61 61.23-17.6 26.45-44.21 40.92-72.07 53.52-9.94 4.49-20.3 8.07-33 13.07Z"/><path d="M601.58 86.65c-2.83 2.96-6.58 2.54-10.16 2.75-15.34.9-23.74 8.92-25.12 24.19-.32 3.52-.3 7.06-2.07 10.26 1.68 8.88 7.18 14.46 15.34 17.73-1.69-3.32-3.38-6.65-5.65-11.11h9.99s.04-.06.07-.09c-.07-.04-.13-.06-.2-.1l-3.57-2.76c-1.72-1.6-2.93-3.49-3.65-5.67-1.1-2.1-1.61-4.37-1.52-6.79-.09-2.43.41-4.69 1.52-6.79.25-.78.6-1.52.98-2.22l-.07.09s.02-.03.03-.04c.03-.04.06-.08.08-.12.66-1.19 1.49-2.29 2.51-3.27.06-.07.11-.14.18-.21 1.05-1.08 2.27-2.03 3.59-2.77 3.03-1.72 5.45-2.28 8.92-2.41 3.18 0 6.15.81 8.9 2.41l3.57 2.76c2.18 2.2 3.7 4.79 4.53 7.78l.63 4.69c.09 2.43-.41 4.69-1.52 6.79-.71 2.19-1.93 4.08-3.65 5.67-.03.03-.06.05-.09.08 0 0-.01.02-.02.02-.02.02-.04.04-.07.06-.87.91-1.83 1.66-2.88 2.28-.24.15-.49.29-.73.44.04.05.06.09.1.14 9.72 3.56 14.35 10.9 10.31 22.6-5.81 16.82-10.01 34.22-18.45 50.21-23.26 44.11-53.92 82.19-89.82 116.66-27.98 26.87-57.83 51.26-88.94 74.27-26.48 19.59-53.99 37.53-83.08 53.01-4.43 2.36-7.64 5.58-8.9 10.53 5.23-2.54 10.64-4.79 15.68-7.66 55.72-31.83 107.54-69.08 154.91-112.4 35.44-32.41 68.13-67.27 93.17-108.58 16.63-27.43 30.49-55.91 28.43-89.34-.22-3.6 1.74-6.17 3.29-9.05 10.05-18.66 3.35-36.33-16.59-44.04ZM486.51 33.5c-.77 2.43-2.9 3.25-4.98 3.75-12.98 3.11-21.02 11.08-24.23 24.04-.51 2.05-.96 4.78-3.53 5.04-3.48.36-3.7-2.87-4.36-5.2-3.47-12.21-10.79-20.48-23.45-23.56-2.44-.59-5.52-1.24-5.67-4.3-.16-3.26 3.04-3.7 5.41-4.29 12.53-3.15 20.21-11.07 23.58-23.42.64-2.38.89-5.56 4.18-5.56 2.6 0 3.22 2.68 3.74 4.78 3.32 13.34 11.54 21.46 25 24.71 4.12.99 4.53 2.22 4.31 4.02ZM65.48 315.02c-.34 2.85-2.66 3.38-4.7 3.9-12.9 3.27-21.08 11.11-24.01 24.25-.47 2.1-1.13 4.54-3.75 4.76-2.85.23-3.52-2.44-4.01-4.4-3.33-13.36-11.5-21.68-24.98-24.74-1.8-.41-3.69-1.2-3.98-3.24-.42-2.95 2.11-3.58 4.16-4.08 13.39-3.24 21.64-11.47 24.82-24.91.47-1.98 1.16-4.53 4.05-4.34 2.15.14 3.04 2.06 3.41 3.78 2.99 13.96 11.34 22.52 25.3 25.67 1.7.38 3.57 1.06 3.69 3.35ZM243.81 549.63c.05 8.93-7.04 16.45-15.65 16.59-8.49.14-15.83-7.31-16-16.24-.16-8.62 6.21-15.16 15.07-15.48 9.33-.34 16.53 6.23 16.57 15.13ZM542.5 447.7c11.1-4.41 19.53-10.15 22.19-22.86 4.29 11.77 10.97 19.23 22.93 22.7-10.97 4.33-19.02 10.41-22.11 22.59-4.55-11.01-11.52-18.51-23.01-22.43ZM356.54 351.64c-7.48-.79-12.72-4.29-12.82-12.21-.1-8.09 4.3-13.35 12.65-13.31 8.18.04 12.91 4.94 12.83 13.18-.07 7.97-5.32 11.41-12.66 12.35Z"/><path d="M601.58 86.65c1.66 8.32-4.77 7.67-9.47 8.01-15.68 1.14-18.77 3.84-20.45 19.38-.52 4.84-3.16 7.9-7.43 9.81-4.72-11-1.79-20.8 5.82-29.02 8.53-9.22 19.15-12.68 31.53-8.19ZM527.06 87.78c-6.2 3.83-10.83 8.12-13.58 15.98-4.12-7.04-7.96-12.44-16.05-15.07 6.84-4.66 13.17-7.75 14.68-16.96 4.78 7.18 7.38 13.51 14.95 16.05ZM534.42 248.68c-2-9-8.03-15.02-3.68-20.79 1.76-2.34 10.62.45 12.44 3.79 3.91 7.15-4.77 9.48-8.77 16.99ZM299.49 119.88c4.7.06 7.54 2.24 7.61 7.18.07 4.88-2.52 7.4-7.36 7.44-4.35.03-6.78-2.33-7.08-6.61-.34-4.76 1.87-7.57 6.83-8.01ZM322.85 482.08c-.25 5.24-2.68 7.87-7.63 7.66-4.52-.19-6.39-3-6.45-7.23-.06-4.3 1.91-7.03 6.38-7.24 4.88-.22 7.42 2.33 7.69 6.8ZM609.95 118.77l-.03-7.38c3.66-1.44 4.47.86 4.47 3.67 0 2.79-.75 5.13-4.44 3.71Z"/></svg>